<?xml version="1.0" standalone="no"?>
<svg xmlns:xlink="http://www.w3.org/1999/xlink" id="wave" style="transform:rotate(180deg); transition: 0.3s" viewBox="0 0 1440 100" version="1.1" xmlns="http://www.w3.org/2000/svg"><defs><linearGradient id="sw-gradient-0" x1="0" x2="0" y1="1" y2="0"><stop stop-color="rgba(173, 216, 230, 1)" offset="0%"/><stop stop-color="rgba(173, 216, 230, 1)" offset="100%"/></linearGradient></defs><path style="transform:translate(0, 0px); opacity:1" fill="url(#sw-gradient-0)" d="M0,80L26.7,66.7C53.3,53,107,27,160,20C213.3,13,267,27,320,28.3C373.3,30,427,20,480,26.7C533.3,33,587,57,640,68.3C693.3,80,747,80,800,68.3C853.3,57,907,33,960,35C1013.3,37,1067,63,1120,76.7C1173.3,90,1227,90,1280,75C1333.3,60,1387,30,1440,16.7C1493.3,3,1547,7,1600,21.7C1653.3,37,1707,63,1760,68.3C1813.3,73,1867,57,1920,56.7C1973.3,57,2027,73,2080,66.7C2133.3,60,2187,30,2240,28.3C2293.3,27,2347,53,2400,66.7C2453.3,80,2507,80,2560,81.7C2613.3,83,2667,87,2720,81.7C2773.3,77,2827,63,2880,53.3C2933.3,43,2987,37,3040,33.3C3093.3,30,3147,30,3200,36.7C3253.3,43,3307,57,3360,56.7C3413.3,57,3467,43,3520,31.7C3573.3,20,3627,10,3680,15C3733.3,20,3787,40,3813,50L3840,60L3840,100L3813.3,100C3786.7,100,3733,100,3680,100C3626.7,100,3573,100,3520,100C3466.7,100,3413,100,3360,100C3306.7,100,3253,100,3200,100C3146.7,100,3093,100,3040,100C2986.7,100,2933,100,2880,100C2826.7,100,2773,100,2720,100C2666.7,100,2613,100,2560,100C2506.7,100,2453,100,2400,100C2346.7,100,2293,100,2240,100C2186.7,100,2133,100,2080,100C2026.7,100,1973,100,1920,100C1866.7,100,1813,100,1760,100C1706.7,100,1653,100,1600,100C1546.7,100,1493,100,1440,100C1386.7,100,1333,100,1280,100C1226.7,100,1173,100,1120,100C1066.7,100,1013,100,960,100C906.7,100,853,100,800,100C746.7,100,693,100,640,100C586.7,100,533,100,480,100C426.7,100,373,100,320,100C266.7,100,213,100,160,100C106.7,100,53,100,27,100L0,100Z"/></svg>